<svg width="139" height="44" viewBox="0 0 139 44" fill="none" xmlns="http://www.w3.org/2000/svg">
<path d="M35.7175 15.3728C35.3052 15.0483 34.8543 14.7932 34.3788 14.6116C33.4258 14.2443 32.3749 14.1708 31.3504 14.4178L26.7243 15.532V18.191L31.9565 16.9298C32.1545 16.8829 32.3565 16.8584 32.5544 16.8584C33.1177 16.8584 33.6666 17.0461 34.1196 17.4033C34.7339 17.8869 35.0869 18.6134 35.0869 19.397V28.5555C35.0869 28.8555 35.0338 29.1473 34.9379 29.4166C34.6543 30.2023 33.9951 30.8165 33.1442 31.0206L25.0897 32.9613C24.3305 33.1449 23.5408 32.9735 22.9266 32.4879C22.3123 32.0042 21.9593 31.2777 21.9593 30.4962V21.3356C21.9593 20.1602 22.7592 19.146 23.902 18.8705L24.1408 18.8134V16.1544L23.2959 16.3584C22.3817 16.5788 21.5736 17.0359 20.9349 17.6522C20.4553 17.0074 19.8248 16.4748 19.082 16.1115L15.7924 14.5096C14.3088 13.7872 12.6049 13.8198 11.1621 14.581C11.0662 14.8504 11.0132 15.1422 11.0132 15.4422V19.1133C11.0132 18.2195 11.4478 17.4359 12.2049 16.9625C12.962 16.489 13.8558 16.4401 14.6598 16.8319L17.9494 18.4338C18.8167 18.8562 19.3758 19.7521 19.3758 20.7153V29.233C19.3758 30.1268 18.9412 30.9104 18.1841 31.3839C17.427 31.8573 16.5332 31.9063 15.7291 31.5145L12.4396 29.9125C12.1682 29.7799 11.9274 29.6024 11.7254 29.3901C11.7254 29.3901 11.7254 29.3881 11.7233 29.3881C11.2458 29.2065 10.7928 28.9514 10.3806 28.6249C9.13984 27.6474 8.42969 26.1822 8.42969 24.6027V27.6311C8.42969 29.5758 9.55818 31.3838 11.307 32.2348L14.5986 33.8367C15.3129 34.1857 16.0801 34.3571 16.8434 34.3571C17.7841 34.3571 18.7228 34.0959 19.5534 33.5755C19.7554 33.449 19.9452 33.3123 20.1247 33.1633C20.437 33.6755 20.841 34.1347 21.3287 34.5183C22.243 35.2407 23.351 35.6182 24.4856 35.6182C24.8877 35.6182 25.2937 35.5713 25.6958 35.4733L33.7503 33.5327C36.0583 32.9776 37.6704 30.9308 37.6704 28.5555V19.397C37.6704 17.8175 36.9582 16.3503 35.7175 15.3728Z" fill="#7B99FF"/>
<path d="M34.791 11.7638L31.5014 10.1618C29.9056 9.38434 28.0527 9.48229 26.5447 10.423C26.3447 10.5496 26.1529 10.6863 25.9753 10.8352C25.6631 10.323 25.2591 9.86389 24.7713 9.48025C23.5306 8.50277 21.9389 8.15585 20.4043 8.52521L12.3498 10.4659C10.0418 11.0209 8.42969 13.0677 8.42969 15.4431V24.6036C8.42969 26.1831 9.13984 27.6483 10.3806 28.6258C10.7928 28.9523 11.2458 29.2074 11.7233 29.389C11.7254 29.389 11.7254 29.391 11.7254 29.391C12.3049 29.6114 12.9171 29.7257 13.5395 29.7257C13.9415 29.7257 14.3476 29.6767 14.7496 29.5808L17.2372 28.9808L19.3758 28.4666V25.8076L16.6311 26.4688L14.1435 27.0687C13.3824 27.2524 12.5947 27.0789 11.9804 26.5953C11.3662 26.1117 11.0132 25.3852 11.0132 24.6036V15.4431C11.0132 15.1431 11.0662 14.8513 11.1621 14.5819C11.4437 13.7963 12.1049 13.182 12.9559 12.9779L21.0083 11.0373C21.3491 10.9556 21.694 10.9434 22.0266 11.0005C22.096 11.0128 22.1634 11.0271 22.2307 11.0434C22.2654 11.0516 22.298 11.0618 22.3327 11.072C22.4287 11.1005 22.5246 11.1352 22.6164 11.176C22.6858 11.2046 22.7511 11.2373 22.8164 11.274C22.9409 11.3413 23.0592 11.4209 23.1735 11.5107C23.7877 11.9943 24.1408 12.7208 24.1408 13.5024V22.6629C24.1408 23.8384 23.3408 24.8526 22.1981 25.1281L21.9593 25.1852V27.8442L22.8021 27.6401C22.9776 27.5973 23.149 27.5463 23.3163 27.4871C24.0204 27.2381 24.6469 26.8443 25.1631 26.3443C25.1978 26.3912 25.2346 26.4382 25.2713 26.4851C25.7366 27.0667 26.3284 27.5503 27.0181 27.887L30.3077 29.489C31.0239 29.8379 31.7892 30.0114 32.5524 30.0114C33.3727 30.0114 34.191 29.8114 34.9379 29.4175C35.0338 29.1482 35.0869 28.8564 35.0869 28.5564V24.8873C35.0869 25.779 34.6522 26.5627 33.8951 27.0381C33.4789 27.2993 33.0197 27.4299 32.5565 27.4299C32.1789 27.4299 31.8014 27.3422 31.4402 27.1667L28.1486 25.5648C27.2834 25.1424 26.7243 24.2465 26.7243 23.2833V14.7656C26.7243 13.8718 27.1569 13.0881 27.916 12.6147C28.3323 12.3535 28.7914 12.2209 29.2547 12.2209C29.6302 12.2209 30.0097 12.3086 30.3709 12.4841L33.6605 14.086C33.9319 14.2187 34.1747 14.3982 34.3788 14.6125C34.8543 14.7941 35.3052 15.0492 35.7175 15.3737C36.9582 16.3512 37.6704 17.8184 37.6704 19.3979V16.3675C37.6704 14.4227 36.5399 12.6147 34.791 11.7638Z" fill="#53E99D"/>
<path d="M51.5544 13.3468C52.3442 13.3468 52.9278 13.1407 53.3053 12.7284C53.6829 12.3162 53.8706 11.7938 53.8706 11.1612C53.8706 10.5286 53.6829 9.98171 53.3053 9.56949C52.9278 9.15728 52.3442 8.95117 51.5544 8.95117C50.7647 8.95117 50.1811 9.15728 49.8035 9.56949C49.426 9.98171 49.2383 10.5123 49.2383 11.1612C49.2383 11.8101 49.426 12.3162 49.8035 12.7284C50.1811 13.1407 50.7647 13.3468 51.5544 13.3468Z" fill="#FCFCFC"/>
<path d="M47.9766 14.7695V17.902H49.8968V29.195H54.1353V17.902V14.7695H49.8968H47.9766Z" fill="#FCFCFC"/>
<path d="M66.4296 14.3223H66.246C65.1399 14.3223 64.2012 14.5692 63.4299 15.0589C62.6564 15.5507 62.083 16.2874 61.7055 17.271C61.5708 17.62 61.4627 18.0016 61.377 18.4118V14.7712H58.0078V29.1967H62.2463V20.7993C62.2463 19.9933 62.4871 19.3423 62.9707 18.8505C63.4523 18.3587 64.089 18.1138 64.8787 18.1138C65.6685 18.1138 66.2603 18.3546 66.7092 18.8383C67.1561 19.3219 67.3806 19.9484 67.3806 20.7198V29.1967H71.6191V20.9565C71.6191 18.7281 71.1762 17.0649 70.2906 15.967C69.4049 14.8712 68.1193 14.3223 66.4337 14.3223H66.4296Z" fill="#FCFCFC"/>
<path d="M81.5925 25.6932H80.9762L77.9071 14.7695H73.5625L77.8805 29.195H79.1702H80.7497H81.9619H83.4352H84.5678L88.3043 14.7695H84.225L81.5925 25.6932Z" fill="#FCFCFC"/>
<path d="M100.822 15.3082C99.7608 14.6144 98.4568 14.2695 96.912 14.2695C95.7366 14.2695 94.6877 14.4756 93.7653 14.8879C92.8449 15.3001 92.0715 15.8572 91.4491 16.5592C90.8267 17.2611 90.3513 18.055 90.0268 18.9406C89.7023 19.8263 89.5391 20.7527 89.5391 21.718V22.2445C89.5391 23.175 89.7003 24.0831 90.0268 24.9687C90.3513 25.8544 90.8288 26.6584 91.4614 27.3767C92.094 28.0971 92.8776 28.6664 93.8163 29.0888C94.755 29.5092 95.8386 29.7214 97.0671 29.7214C98.2956 29.7214 99.3485 29.5072 100.279 29.0766C101.21 28.646 101.981 28.0542 102.595 27.2992C103.209 26.5441 103.622 25.685 103.832 24.7198H99.9628C99.7873 25.1585 99.4526 25.5279 98.9629 25.8258C98.4711 26.1238 97.8405 26.2727 97.0671 26.2727C96.2243 26.2727 95.5407 26.0972 95.0142 25.7462C94.4877 25.3952 94.102 24.8994 93.8551 24.2586C93.7183 23.9035 93.6245 23.5097 93.5633 23.0872H104.095V21.6649C104.095 20.3487 103.814 19.1345 103.252 18.0182C102.691 16.904 101.879 16 100.818 15.3062L100.822 15.3082ZM93.8857 19.6528C94.1489 19.012 94.5346 18.5304 95.0448 18.206C95.5529 17.8815 96.1773 17.7183 96.914 17.7183C97.6507 17.7183 98.2343 17.8815 98.718 18.206C99.1996 18.5304 99.5608 18.9957 99.7975 19.6018C99.924 19.9263 100.016 20.2915 100.075 20.6935H93.5979C93.6632 20.3119 93.7592 19.965 93.8877 19.6528H93.8857Z" fill="#FCFCFC"/>
<path d="M111.457 16.243C110.8 17.0777 110.394 18.1837 110.232 19.5591V14.7676H106.863V29.1931H111.102V21.8488C111.102 20.6733 111.418 19.7775 112.049 19.1632C112.681 18.549 113.575 18.2429 114.734 18.2429H115.787V14.584H115.234C113.585 14.584 112.326 15.137 111.457 16.243Z" fill="#FCFCFC"/>
<path d="M129.134 17.0719C128.608 16.2209 127.84 15.5842 126.83 15.1639C125.82 14.7435 124.58 14.5312 123.106 14.5312C122.596 14.5312 122.053 14.5394 121.474 14.5578C120.894 14.5761 120.333 14.6006 119.788 14.6374C119.243 14.6721 118.762 14.7067 118.341 14.7435V18.2983C118.884 18.2636 119.494 18.233 120.17 18.2065C120.845 18.18 121.498 18.1575 122.131 18.1412C122.763 18.1249 123.271 18.1147 123.657 18.1147C124.428 18.1147 124.992 18.2942 125.343 18.6534C125.694 19.0125 125.869 19.5697 125.869 20.3247V20.3512H123.263C121.982 20.3512 120.849 20.5145 119.868 20.8389C118.884 21.1634 118.121 21.6634 117.578 22.3388C117.033 23.0143 116.762 23.8795 116.762 24.9325C116.762 25.8978 116.98 26.7263 117.419 27.4201C117.858 28.1139 118.468 28.6445 119.249 29.0118C120.031 29.3812 120.939 29.5648 121.974 29.5648C123.008 29.5648 123.82 29.3812 124.514 29.0118C125.208 28.6424 125.751 28.116 126.147 27.4323C126.322 27.1283 126.467 26.7895 126.581 26.4222V29.1955H129.924V20.3512C129.924 19.0166 129.661 17.9249 129.134 17.0739V17.0719ZM124.514 26.3896C124.137 26.5569 123.712 26.6406 123.237 26.6406C122.5 26.6406 121.933 26.461 121.539 26.1018C121.145 25.7427 120.947 25.2733 120.947 24.6938C120.947 24.0795 121.145 23.5918 121.539 23.2326C121.935 22.8735 122.5 22.6939 123.237 22.6939H125.869V23.853C125.835 24.5734 125.694 25.1345 125.449 25.5386C125.202 25.9426 124.892 26.2283 124.514 26.3936V26.3896Z" fill="#FCFCFC"/>
</svg>
